{
  "accessors": [
    {
      "bufferView": 2,
      "componentType": 5126,
      "count": 4556,
      "max": [
        -0.5432999730110168,
        14.505200386047363,
        1.5898000001907349
      ],
      "min": [
        -1.8406000137329102,
        3.7883999347686768,
        -4.473499774932861
      ],
      "type": "VEC3"
    },
    {
      "bufferView": 2,
      "byteOffset": 54672,
      "componentType": 5126,
      "count": 4556,
      "max": [
        1.0,
        1.0,
        1.0
      ],
      "min": [
        -1.0,
        -1.0,
        -1.0
      ],
      "type": "VEC3"
    },
    {
      "bufferView": 3,
      "componentType": 5126,
      "count": 4556,
      "max": [
        1.0,
        1.0,
        1.0,
        1.0
      ],
      "min": [
        -1.0,
        -1.0,
        -1.0,
        -1.0
      ],
      "type": "VEC4"
    },
    {
      "bufferView": 1,
      "componentType": 5126,
      "count": 4556,
      "max": [
        1.996000051498413,
        0.09359999746084213
      ],
      "min": [
        -0.07530000060796738,
        -0.9937000274658203
      ],
      "type": "VEC2"
    },
    {
      "bufferView": 0,
      "componentType": 5125,
      "count": 9684,
      "type": "SCALAR"
    },
    {
      "bufferView": 2,
      "byteOffset": 109344,
      "componentType": 5126,
      "count": 2523,
      "max": [
        -0.558899998664856,
        14.508399963378906,
        1.4780000448226929
      ],
      "min": [
        -1.8250999450683594,
        3.14520001411438,
        -4.295300006866455
      ],
      "type": "VEC3"
    },
    {
      "bufferView": 2,
      "byteOffset": 139620,
      "componentType": 5126,
      "count": 2523,
      "max": [
        1.0,
        1.0,
        1.0
      ],
      "min": [
        -1.0,
        -1.0,
        -1.0
      ],
      "type": "VEC3"
    },
    {
      "bufferView": 3,
      "byteOffset": 72896,
      "componentType": 5126,
      "count": 2523,
      "max": [
        1.0,
        1.0,
        1.0,
        1.0
      ],
      "min": [
        -1.0,
        -1.0,
        -1.0,
        -1.0
      ],
      "type": "VEC4"
    },
    {
      "bufferView": 1,
      "byteOffset": 36448,
      "componentType": 5126,
      "count": 2523,
      "max": [
        1.9180999994277954,
        -0.04610000178217888
      ],
      "min": [
        0.006000000052154064,
        -0.9965000152587891
      ],
      "type": "VEC2"
    },
    {
      "bufferView": 0,
      "byteOffset": 38736,
      "componentType": 5125,
      "count": 8964,
      "type": "SCALAR"
    },
    {
      "bufferView": 2,
      "byteOffset": 169896,
      "componentType": 5126,
      "count": 2526,
      "max": [
        -0.5432999730110168,
        14.505200386047363,
        1.256100058555603
      ],
      "min": [
        -1.8406000137329102,
        3.14520001411438,
        -4.473599910736084
      ],
      "type": "VEC3"
    },
    {
      "bufferView": 2,
      "byteOffset": 200208,
      "componentType": 5126,
      "count": 2526,
      "max": [
        1.0,
        0.9994930028915405,
        1.0
      ],
      "min": [
        -1.0,
        -1.0,
        -1.0
      ],
      "type": "VEC3"
    },
    {
      "bufferView": 3,
      "byteOffset": 113264,
      "componentType": 5126,
      "count": 2526,
      "max": [
        1.0,
        1.0,
        0.9999951124191284,
        1.0
      ],
      "min": [
        -1.0,
        -1.0,
        -0.9999370574951172,
        -1.0
      ],
      "type": "VEC4"
    },
    {
      "bufferView": 1,
      "byteOffset": 56632,
      "componentType": 5126,
      "count": 2526,
      "max": [
        1.9986000061035156,
        -0.0019000000320374966
      ],
      "min": [
        0.006000000052154064,
        -0.9984999895095825
      ],
      "type": "VEC2"
    },
    {
      "bufferView": 0,
      "byteOffset": 74592,
      "componentType": 5125,
      "count": 7488,
      "type": "SCALAR"
    }
  ],
  "asset": {
    "extras": {
      "author": "AvnisT (https://sketchfab.com/AvnisT)",
      "license": "CC-BY-4.0 (http://creativecommons.org/licenses/by/4.0/)",
      "source": "https://sketchfab.com/3d-models/deagle-ff635600c2ac48ba9557bb06f9f682e9",
      "title": "DEAGLE"
    },
    "generator": "Sketchfab-12.67.0",
    "version": "2.0"
  },
  "bufferViews": [
    {
      "buffer": 0,
      "byteLength": 104544,
      "name": "floatBufferViews",
      "target": 34963
    },
    {
      "buffer": 0,
      "byteLength": 76840,
      "byteOffset": 104544,
      "byteStride": 8,
      "name": "floatBufferViews",
      "target": 34962
    },
    {
      "buffer": 0,
      "byteLength": 230520,
      "byteOffset": 181384,
      "byteStride": 12,
      "name": "floatBufferViews",
      "target": 34962
    },
    {
      "buffer": 0,
      "byteLength": 153680,
      "byteOffset": 411904,
      "byteStride": 16,
      "name": "floatBufferViews",
      "target": 34962
    }
  ],
  "buffers": [
    {
      "byteLength": 565584,
      "uri": "scene.bin"
    }
  ],
  "images": [
    {
      "uri": "textures/Material__106_baseColor.png"
    },
    {
      "uri": "textures/Material__106_normal.png"
    }
  ],
  "materials": [
    {
      "doubleSided": true,
      "name": "Material__106",
      "normalTexture": {
        "index": 1
      },
      "pbrMetallicRoughness": {
        "baseColorTexture": {
          "index": 0
        },
        "roughnessFactor": 0.30316310980000005
      }
    }
  ],
  "meshes": [
    {
      "name": "Object_0",
      "primitives": [
        {
          "attributes": {
            "NORMAL": 1,
            "POSITION": 0,
            "TANGENT": 2,
            "TEXCOORD_0": 3
          },
          "indices": 4,
          "material": 0,
          "mode": 4
        }
      ]
    },
    {
      "name": "Object_1",
      "primitives": [
        {
          "attributes": {
            "NORMAL": 6,
            "POSITION": 5,
            "TANGENT": 7,
            "TEXCOORD_0": 8
          },
          "indices": 9,
          "material": 0,
          "mode": 4
        }
      ]
    },
    {
      "name": "Object_2",
      "primitives": [
        {
          "attributes": {
            "NORMAL": 11,
            "POSITION": 10,
            "TANGENT": 12,
            "TEXCOORD_0": 13
          },
          "indices": 14,
          "material": 0,
          "mode": 4
        }
      ]
    }
  ],
  "nodes": [
    {
      "children": [
        1
      ],
      "matrix": [
        -1.0,
        0.0,
        0.0,
        0.0,
        0.0,
        2.220446049250313e-16,
        -1.0,
        0.0,
        0.0,
        -1.0,
        -2.220446049250313e-16,
        0.0,
        -2.3838939666748047,
        -2.8838601112365723,
        -6.403455790585815e-16,
        1.0
      ],
      "name": "Sketchfab_model"
    },
    {
      "children": [
        2,
        3,
        4
      ],
      "name": "ESe.obj.cleaner.materialmerger.gles"
    },
    {
      "mesh": 0,
      "name": "Object_2"
    },
    {
      "mesh": 1,
      "name": "Object_3"
    },
    {
      "mesh": 2,
      "name": "Object_4"
    }
  ],
  "samplers": [
    {
      "magFilter": 9729,
      "minFilter": 9987,
      "wrapS": 10497,
      "wrapT": 10497
    }
  ],
  "scene": 0,
  "scenes": [
    {
      "name": "Sketchfab_Scene",
      "nodes": [
        0
      ]
    }
  ],
  "textures": [
    {
      "sampler": 0,
      "source": 0
    },
    {
      "sampler": 0,
      "source": 1
    }
  ]
}
