{
  "accessors": [
    {
      "bufferView": 2,
      "componentType": 5126,
      "count": 65532,
      "max": [
        92.69535064697266,
        76.3323974609375,
        9.924311637878418
      ],
      "min": [
        0.12868881225585938,
        0.0,
        0.4600358009338379
      ],
      "type": "VEC3"
    },
    {
      "bufferView": 2,
      "byteOffset": 786384,
      "componentType": 5126,
      "count": 65532,
      "max": [
        0.9998822212219238,
        0.9999011158943176,
        1.0
      ],
      "min": [
        -0.9999580979347229,
        -0.9999738335609436,
        -0.9995208382606506
      ],
      "type": "VEC3"
    },
    {
      "bufferView": 1,
      "componentType": 5126,
      "count": 65532,
      "max": [
        0.9938719868659973,
        0.9997739791870117
      ],
      "min": [
        0.0068350001238286495,
        0.04769400134682655
      ],
      "type": "VEC2"
    },
    {
      "bufferView": 0,
      "componentType": 5125,
      "count": 327642,
      "type": "SCALAR"
    },
    {
      "bufferView": 2,
      "byteOffset": 1572768,
      "componentType": 5126,
      "count": 65532,
      "max": [
        92.81830596923828,
        76.52244567871094,
        8.193878173828125
      ],
      "min": [
        0.0,
        2.345264434814453,
        0.0
      ],
      "type": "VEC3"
    },
    {
      "bufferView": 2,
      "byteOffset": 2359152,
      "componentType": 5126,
      "count": 65532,
      "max": [
        0.9998592734336853,
        0.9998930096626282,
        0.9999999403953552
      ],
      "min": [
        -0.9997723698616028,
        -0.9998666644096375,
        -0.9999784827232361
      ],
      "type": "VEC3"
    },
    {
      "bufferView": 1,
      "byteOffset": 524256,
      "componentType": 5126,
      "count": 65532,
      "max": [
        0.9953160285949707,
        0.9996349811553955
      ],
      "min": [
        0.0039059999398887157,
        0.003642000025138259
      ],
      "type": "VEC2"
    },
    {
      "bufferView": 0,
      "byteOffset": 1310568,
      "componentType": 5125,
      "count": 338451,
      "type": "SCALAR"
    },
    {
      "bufferView": 2,
      "byteOffset": 3145536,
      "componentType": 5126,
      "count": 36682,
      "max": [
        92.44154357910156,
        73.30305480957031,
        6.4664459228515625
      ],
      "min": [
        0.2732963562011719,
        0.0017852783203125,
        1.0549867153167725
      ],
      "type": "VEC3"
    },
    {
      "bufferView": 2,
      "byteOffset": 3585720,
      "componentType": 5126,
      "count": 36682,
      "max": [
        0.9999196529388428,
        0.9999810457229614,
        0.9999997615814209
      ],
      "min": [
        -0.9999420642852783,
        -0.9996036291122437,
        -0.9997586607933044
      ],
      "type": "VEC3"
    },
    {
      "bufferView": 1,
      "byteOffset": 1048512,
      "componentType": 5126,
      "count": 36682,
      "max": [
        0.9943540096282959,
        1.000012993812561
      ],
      "min": [
        0.007242999970912933,
        0.006200000178068876
      ],
      "type": "VEC2"
    },
    {
      "bufferView": 0,
      "byteOffset": 2664372,
      "componentType": 5125,
      "count": 145893,
      "type": "SCALAR"
    }
  ],
  "asset": {
    "extras": {
      "author": "Dominik Hagmann (https://sketchfab.com/dominik.hagmann)",
      "license": "CC-BY-4.0 (http://creativecommons.org/licenses/by/4.0/)",
      "source": "https://sketchfab.com/3d-models/field-and-garden-2a0e1033e935452cb03d17c50fb12807",
      "title": "Field and Garden"
    },
    "generator": "Sketchfab-12.66.0",
    "version": "2.0"
  },
  "bufferViews": [
    {
      "buffer": 0,
      "byteLength": 3247944,
      "name": "floatBufferViews",
      "target": 34963
    },
    {
      "buffer": 0,
      "byteLength": 1341968,
      "byteOffset": 3247944,
      "byteStride": 8,
      "name": "floatBufferViews",
      "target": 34962
    },
    {
      "buffer": 0,
      "byteLength": 4025904,
      "byteOffset": 4589912,
      "byteStride": 12,
      "name": "floatBufferViews",
      "target": 34962
    }
  ],
  "buffers": [
    {
      "byteLength": 8615816,
      "uri": "scene.bin"
    }
  ],
  "images": [
    {
      "uri": "textures/material_0_baseColor.jpeg"
    }
  ],
  "materials": [
    {
      "doubleSided": true,
      "name": "material_0",
      "pbrMetallicRoughness": {
        "baseColorTexture": {
          "index": 0
        },
        "metallicFactor": 0.0,
        "roughnessFactor": 0.6
      }
    }
  ],
  "meshes": [
    {
      "name": "Object_0",
      "primitives": [
        {
          "attributes": {
            "NORMAL": 1,
            "POSITION": 0,
            "TEXCOORD_0": 2
          },
          "indices": 3,
          "material": 0,
          "mode": 4
        }
      ]
    },
    {
      "name": "Object_1",
      "primitives": [
        {
          "attributes": {
            "NORMAL": 5,
            "POSITION": 4,
            "TEXCOORD_0": 6
          },
          "indices": 7,
          "material": 0,
          "mode": 4
        }
      ]
    },
    {
      "name": "Object_2",
      "primitives": [
        {
          "attributes": {
            "NORMAL": 9,
            "POSITION": 8,
            "TEXCOORD_0": 10
          },
          "indices": 11,
          "material": 0,
          "mode": 4
        }
      ]
    }
  ],
  "nodes": [
    {
      "children": [
        1
      ],
      "matrix": [
        1.0,
        0.0,
        0.0,
        0.0,
        0.0,
        2.220446049250313e-16,
        -1.0,
        0.0,
        0.0,
        1.0,
        2.220446049250313e-16,
        0.0,
        0.0,
        0.0,
        0.0,
        1.0
      ],
      "name": "Sketchfab_model"
    },
    {
      "children": [
        2,
        3,
        4
      ],
      "matrix": [
        1.0,
        0.0,
        0.0,
        0.0,
        0.0,
        1.0,
        0.0,
        0.0,
        0.0,
        0.0,
        1.0,
        0.0,
        -46.40915298461914,
        -38.26122283935547,
        -4.962155818939209,
        1.0
      ],
      "name": "model.obj.cleaner.gles"
    },
    {
      "mesh": 0,
      "name": "Object_2"
    },
    {
      "mesh": 1,
      "name": "Object_3"
    },
    {
      "mesh": 2,
      "name": "Object_4"
    }
  ],
  "samplers": [
    {
      "magFilter": 9729,
      "minFilter": 9987,
      "wrapS": 10497,
      "wrapT": 10497
    }
  ],
  "scene": 0,
  "scenes": [
    {
      "name": "Sketchfab_Scene",
      "nodes": [
        0
      ]
    }
  ],
  "textures": [
    {
      "sampler": 0,
      "source": 0
    }
  ]
}
