{
  "accessors": [
    {
      "bufferView": 3,
      "componentType": 5126,
      "count": 2084,
      "max": [
        0.6565589904785156,
        10.844738006591797,
        1.2553119659423828
      ],
      "min": [
        -0.6406559944152832,
        -3.672874927520752,
        -1.848510980606079
      ],
      "type": "VEC3"
    },
    {
      "bufferView": 3,
      "byteOffset": 25008,
      "componentType": 5126,
      "count": 2084,
      "max": [
        1.0,
        1.0,
        1.0
      ],
      "min": [
        -1.0,
        -1.0,
        -1.0
      ],
      "type": "VEC3"
    },
    {
      "bufferView": 2,
      "componentType": 5126,
      "count": 2084,
      "max": [
        1.0,
        0.998183012008667
      ],
      "min": [
        0.0,
        0.00034302473068237305
      ],
      "type": "VEC2"
    },
    {
      "bufferView": 1,
      "componentType": 5125,
      "count": 6606,
      "type": "SCALAR"
    },
    {
      "bufferView": 5,
      "componentType": 5126,
      "count": 41,
      "max": [
        1.0,
        0.9839381575584412,
        0.3750539720058441,
        0.0,
        0.3741339147090912,
        1.0000001192092896,
        0.9073302149772644,
        0.0,
        0.5236870050430298,
        0.9678685665130615,
        1.0000001192092896,
        0.0,
        10.53994083404541,
        15.411287307739258,
        15.826774597167969,
        1.0
      ],
      "min": [
        -0.9966809749603271,
        -0.984837532043457,
        -0.5322889685630798,
        0.0,
        -0.9817034006118774,
        -1.0000001192092896,
        -0.8348536491394043,
        0.0,
        -0.7570808529853821,
        -0.665679395198822,
        -1.0000001192092896,
        0.0,
        -17.43296241760254,
        -15.997785568237305,
        -11.898566246032715,
        1.0
      ],
      "type": "MAT4"
    },
    {
      "bufferView": 0,
      "componentType": 5123,
      "count": 2084,
      "type": "VEC4"
    },
    {
      "bufferView": 4,
      "componentType": 5126,
      "count": 2084,
      "max": [
        1.0,
        0.0,
        0.0,
        0.0
      ],
      "min": [
        1.0,
        0.0,
        0.0,
        0.0
      ],
      "type": "VEC4"
    }
  ],
  "asset": {
    "extras": {
      "author": "SirDJCat (https://sketchfab.com/SirDJCat)",
      "license": "CC-BY-NC-4.0 (http://creativecommons.org/licenses/by-nc/4.0/)",
      "source": "https://sketchfab.com/3d-models/lore-bayonet-csgo-bc2f60ae1108435080839137c0098c1f",
      "title": "Lore Bayonet | CSGO"
    },
    "generator": "Sketchfab-15.33.0",
    "version": "2.0"
  },
  "bufferViews": [
    {
      "buffer": 0,
      "byteLength": 16672,
      "byteStride": 8,
      "name": "shortBufferViews",
      "target": 34962
    },
    {
      "buffer": 0,
      "byteLength": 26424,
      "byteOffset": 16672,
      "name": "floatBufferViews",
      "target": 34963
    },
    {
      "buffer": 0,
      "byteLength": 16672,
      "byteOffset": 43096,
      "byteStride": 8,
      "name": "floatBufferViews",
      "target": 34962
    },
    {
      "buffer": 0,
      "byteLength": 50016,
      "byteOffset": 59768,
      "byteStride": 12,
      "name": "floatBufferViews",
      "target": 34962
    },
    {
      "buffer": 0,
      "byteLength": 33344,
      "byteOffset": 109784,
      "byteStride": 16,
      "name": "floatBufferViews",
      "target": 34962
    },
    {
      "buffer": 0,
      "byteLength": 2624,
      "byteOffset": 143128,
      "name": "floatBufferViews"
    }
  ],
  "buffers": [
    {
      "byteLength": 145752,
      "uri": "scene.bin"
    }
  ],
  "images": [
    {
      "uri": "textures/Material.002_baseColor.jpeg"
    }
  ],
  "materials": [
    {
      "doubleSided": true,
      "name": "Material.002",
      "pbrMetallicRoughness": {
        "baseColorTexture": {
          "index": 0
        },
        "metallicFactor": 0.0,
        "roughnessFactor": 0.5
      }
    }
  ],
  "meshes": [
    {
      "name": "Object_0",
      "primitives": [
        {
          "attributes": {
            "JOINTS_0": 5,
            "NORMAL": 1,
            "POSITION": 0,
            "TEXCOORD_0": 2,
            "WEIGHTS_0": 6
          },
          "indices": 3,
          "material": 0,
          "mode": 4
        }
      ]
    }
  ],
  "nodes": [
    {
      "children": [
        1
      ],
      "matrix": [
        1.0,
        0.0,
        0.0,
        0.0,
        0.0,
        2.220446049250313e-16,
        -1.0,
        0.0,
        0.0,
        1.0,
        2.220446049250313e-16,
        0.0,
        0.0,
        0.0,
        0.0,
        1.0
      ],
      "name": "Sketchfab_model"
    },
    {
      "children": [
        2
      ],
      "name": "root"
    },
    {
      "children": [
        3
      ],
      "matrix": [
        1.0,
        0.0,
        0.0,
        0.0,
        0.0,
        2.220446049250313e-16,
        1.0,
        0.0,
        0.0,
        -1.0,
        2.220446049250313e-16,
        0.0,
        0.0,
        0.0,
        0.0,
        1.0
      ],
      "name": "GLTF_SceneRootNode"
    },
    {
      "children": [
        4
      ],
      "name": "knife_bayonet_skeleton_41"
    },
    {
      "children": [
        5,
        7,
        6
      ],
      "name": "GLTF_created_0"
    },
    {
      "children": [
        8,
        12,
        29,
        46,
        47
      ],
      "name": "GLTF_created_0_rootJoint"
    },
    {
      "name": "knife_bayonet_40"
    },
    {
      "mesh": 0,
      "name": "Object_7",
      "skin": 0
    },
    {
      "children": [
        9
      ],
      "name": "v_weapon_3",
      "rotation": [
        -2.1206014366725867e-07,
        0.0,
        0.0,
        1.0
      ],
      "scale": [
        1.0,
        0.9999999403953552,
        0.9999999403953552
      ]
    },
    {
      "children": [
        10,
        11
      ],
      "name": "v_weapon.knife_2",
      "rotation": [
        7.105427357601002e-15,
        0.0,
        0.0,
        1.0
      ],
      "translation": [
        0.0,
        -2.0194839173657902e-28,
        -3.552713678800501e-15
      ]
    },
    {
      "name": "v_weapon.stattrack_0",
      "rotation": [
        0.11979758739471436,
        -0.0003339556569699198,
        0.9927955865859985,
        0.0023416574113070965
      ],
      "scale": [
        0.9999999403953552,
        0.9999999403953552,
        1.0
      ],
      "translation": [
        -0.08658000081777573,
        7.68784761428833,
        0.2753860056400299
      ]
    },
    {
      "name": "v_weapon.uid_1",
      "rotation": [
        1.0,
        -8.470329472543003e-22,
        -4.371138828673793e-08,
        5.839101504534483e-07
      ],
      "translation": [
        0.590391993522644,
        -0.07062000036239624,
        -0.056494008749723434
      ]
    },
    {
      "children": [
        13
      ],
      "name": "v_weapon.Bip01_R_Forearm_20",
      "rotation": [
        0.9260514974594116,
        -0.04151936620473862,
        0.2162436842918396,
        0.30650201439857483
      ],
      "scale": [
        1.0,
        1.0,
        1.0000001192092896
      ],
      "translation": [
        -4.697147846221924,
        -11.1909818649292,
        3.206418037414551
      ]
    },
    {
      "children": [
        14,
        17,
        20,
        23,
        26
      ],
      "name": "v_weapon.Bip01_R_Hand_19",
      "rotation": [
        0.07065030187368393,
        -0.29842299222946167,
        -0.290104478597641,
        0.9065273404121399
      ],
      "scale": [
        1.0,
        1.0000001192092896,
        1.0
      ],
      "translation": [
        10.295578956604004,
        -2.384185791015625e-05,
        -2.276897430419922e-05
      ]
    },
    {
      "children": [
        15
      ],
      "name": "v_weapon.Bip01_R_Finger4_6",
      "rotation": [
        0.06393388658761978,
        -0.007711323909461498,
        0.8273239135742188,
        0.5580217242240906
      ],
      "scale": [
        0.9999998807907104,
        0.9999998211860657,
        0.9999998807907104
      ],
      "translation": [
        3.323330879211426,
        0.23376750946044922,
        -1.4790714979171753
      ]
    },
    {
      "children": [
        16
      ],
      "name": "v_weapon.Bip01_R_Finger41_5",
      "rotation": [
        0.028322536498308182,
        0.029501184821128845,
        0.06939070671796799,
        0.9967509508132935
      ],
      "translation": [
        0.9631004333496094,
        7.152557373046875e-07,
        -1.5497207641601563e-06
      ]
    },
    {
      "name": "v_weapon.Bip01_R_Finger42_4",
      "rotation": [
        0.04046662896871567,
        0.00589800113812089,
        0.666758120059967,
        0.7441514134407043
      ],
      "scale": [
        0.9999999403953552,
        1.0,
        1.0
      ],
      "translation": [
        0.6828963756561279,
        -5.662441253662109e-07,
        -1.1324882507324219e-06
      ]
    },
    {
      "children": [
        18
      ],
      "name": "v_weapon.Bip01_R_Finger0_9",
      "rotation": [
        -0.7418172359466553,
        -0.4022310972213745,
        0.1388769894838333,
        0.5182958245277405
      ],
      "scale": [
        0.9999999403953552,
        1.0,
        1.0
      ],
      "translation": [
        1.1495211124420166,
        0.4164905548095703,
        1.4141196012496948
      ]
    },
    {
      "children": [
        19
      ],
      "name": "v_weapon.Bip01_R_Finger01_8",
      "rotation": [
        0.005496143363416195,
        -0.0014706567162647843,
        0.13023331761360168,
        0.9914670586585999
      ],
      "scale": [
        0.9999998807907104,
        1.0,
        1.0
      ],
      "translation": [
        1.2638773918151855,
        2.384185791015625e-06,
        -3.933906555175781e-06
      ]
    },
    {
      "name": "v_weapon.Bip01_R_Finger02_7",
      "rotation": [
        0.00303124962374568,
        -0.0011039120145142078,
        0.42789584398269653,
        0.9038223028182983
      ],
      "scale": [
        1.0,
        1.0,
        0.9999999403953552
      ],
      "translation": [
        1.1889444589614868,
        3.0994415283203125e-06,
        0.0
      ]
    },
    {
      "children": [
        21
      ],
      "name": "v_weapon.Bip01_R_Finger1_12",
      "rotation": [
        0.025225434452295303,
        0.08309923857450485,
        0.528401792049408,
        0.8445411920547485
      ],
      "scale": [
        0.9999999403953552,
        1.0,
        1.0
      ],
      "translation": [
        3.7737574577331543,
        0.13321924209594727,
        0.9705793857574463
      ]
    },
    {
      "children": [
        22
      ],
      "name": "v_weapon.Bip01_R_Finger11_11",
      "rotation": [
        0.039922431111335754,
        0.016377795487642288,
        0.6491331458091736,
        0.7594498991966248
      ],
      "scale": [
        0.9999999403953552,
        1.0,
        1.0
      ],
      "translation": [
        1.4334591627120972,
        5.4836273193359375e-06,
        8.761882781982422e-06
      ]
    },
    {
      "name": "v_weapon.Bip01_R_Finger12_10",
      "rotation": [
        0.04853232204914093,
        0.027440320700407028,
        0.5565237402915955,
        0.8289589881896973
      ],
      "scale": [
        0.9999997615814209,
        0.9999998211860657,
        1.0
      ],
      "translation": [
        1.0191621780395508,
        9.059906005859375e-06,
        2.175569534301758e-06
      ]
    },
    {
      "children": [
        24
      ],
      "name": "v_weapon.Bip01_R_Finger2_15",
      "rotation": [
        0.006383037660270929,
        0.03557594120502472,
        0.7470352053642273,
        0.6638011932373047
      ],
      "scale": [
        0.9999998807907104,
        0.9999998211860657,
        0.9999998807907104
      ],
      "translation": [
        3.7995169162750244,
        0.014966011047363281,
        0.03995978832244873
      ]
    },
    {
      "children": [
        25
      ],
      "name": "v_weapon.Bip01_R_Finger21_14",
      "rotation": [
        0.038552235811948776,
        -0.027072511613368988,
        0.6814442276954651,
        0.7303524017333984
      ],
      "scale": [
        0.9999999403953552,
        0.9999998807907104,
        0.9999998807907104
      ],
      "translation": [
        1.7748777866363525,
        4.649162292480469e-06,
        9.357929229736328e-06
      ]
    },
    {
      "name": "v_weapon.Bip01_R_Finger22_13",
      "rotation": [
        0.05377783626317978,
        -0.006937562022358179,
        0.21289095282554626,
        0.9755702614784241
      ],
      "scale": [
        0.9999999403953552,
        1.0,
        1.0
      ],
      "translation": [
        1.0088485479354858,
        3.0994415283203125e-06,
        1.8700957298278809e-06
      ]
    },
    {
      "children": [
        27
      ],
      "name": "v_weapon.Bip01_R_Finger3_18",
      "rotation": [
        0.016279226168990135,
        -0.019253192469477654,
        0.8042795062065125,
        0.5937160849571228
      ],
      "scale": [
        0.9999998807907104,
        0.9999999403953552,
        0.9999999403953552
      ],
      "translation": [
        3.6327648162841797,
        0.05906248092651367,
        -0.7574911117553711
      ]
    },
    {
      "children": [
        28
      ],
      "name": "v_weapon.Bip01_R_Finger31_17",
      "rotation": [
        0.06026335805654526,
        0.00985429622232914,
        0.41498973965644836,
        0.9077746272087097
      ],
      "scale": [
        0.9999998211860657,
        0.9999997615814209,
        0.9999998807907104
      ],
      "translation": [
        1.5001369714736938,
        -2.2649765014648438e-06,
        -8.106231689453125e-06
      ]
    },
    {
      "name": "v_weapon.Bip01_R_Finger32_16",
      "rotation": [
        0.06089646741747856,
        0.0045512644574046135,
        0.49271005392074585,
        0.8680482506752014
      ],
      "scale": [
        1.0,
        1.0,
        0.9999999403953552
      ],
      "translation": [
        0.9056642055511475,
        -2.384185791015625e-06,
        2.384185791015625e-06
      ]
    },
    {
      "children": [
        30
      ],
      "name": "v_weapon.Bip01_L_Forearm_37",
      "rotation": [
        0.24484410881996155,
        -0.32400980591773987,
        -0.9032054543495178,
        0.13888463377952576
      ],
      "scale": [
        1.0,
        1.000000238418579,
        1.0000003576278687
      ],
      "translation": [
        10.386484146118164,
        -11.452825546264648,
        9.22238826751709
      ]
    },
    {
      "children": [
        31,
        34,
        37,
        40,
        43
      ],
      "name": "v_weapon.Bip01_L_Hand_36",
      "rotation": [
        -0.3158843517303467,
        -0.11265619099140167,
        -0.12450921535491943,
        0.9338217973709106
      ],
      "scale": [
        1.0,
        0.9999999403953552,
        0.9999998807907104
      ],
      "translation": [
        10.295580863952637,
        4.5493245124816895e-05,
        -0.00011134147644042969
      ]
    },
    {
      "children": [
        32
      ],
      "name": "v_weapon.Bip01_L_Finger0_23",
      "rotation": [
        0.6583722829818726,
        0.34132444858551025,
        -0.11288133263587952,
        0.6612876653671265
      ],
      "scale": [
        0.9999999403953552,
        1.0,
        1.0
      ],
      "translation": [
        1.149521827697754,
        0.41649559140205383,
        -1.414116382598877
      ]
    },
    {
      "children": [
        33
      ],
      "name": "v_weapon.Bip01_L_Finger01_22",
      "rotation": [
        -0.005307560786604881,
        0.002049756934866309,
        0.23584266006946564,
        0.9717746376991272
      ],
      "scale": [
        0.9999999403953552,
        0.9999999403953552,
        1.0
      ],
      "translation": [
        1.263877511024475,
        -2.652406692504883e-06,
        7.450580596923828e-08
      ]
    },
    {
      "name": "v_weapon.Bip01_L_Finger02_21",
      "rotation": [
        -0.005757670849561691,
        0.00043073834967799485,
        0.10711799561977386,
        0.9942295551300049
      ],
      "scale": [
        1.0000001192092896,
        1.0,
        1.0000001192092896
      ],
      "translation": [
        1.1889444589614868,
        -2.738088369369507e-07,
        -7.539987564086914e-06
      ]
    },
    {
      "children": [
        35
      ],
      "name": "v_weapon.Bip01_L_Finger1_26",
      "rotation": [
        0.014084712602198124,
        0.08904140442609787,
        0.023583194240927696,
        0.9956491589546204
      ],
      "scale": [
        1.0,
        0.9999998807907104,
        0.9999998807907104
      ],
      "translation": [
        3.773754119873047,
        0.1332082450389862,
        -0.9705764055252075
      ]
    },
    {
      "children": [
        36
      ],
      "name": "v_weapon.Bip01_L_Finger11_25",
      "rotation": [
        -0.018659397959709167,
        0.0024749687872827053,
        0.2243606001138687,
        0.9743244051933289
      ],
      "scale": [
        0.9999999403953552,
        0.9999999403953552,
        0.9999998807907104
      ],
      "translation": [
        1.4334583282470703,
        5.21540641784668e-07,
        -3.926455974578857e-06
      ]
    },
    {
      "name": "v_weapon.Bip01_L_Finger12_24",
      "rotation": [
        -0.01866200380027294,
        0.002471637912094593,
        0.22435985505580902,
        0.9743245840072632
      ],
      "scale": [
        1.0,
        0.9999999403953552,
        0.9999999403953552
      ],
      "translation": [
        1.0191609859466553,
        -1.6689300537109375e-06,
        7.927417755126953e-06
      ]
    },
    {
      "children": [
        38
      ],
      "name": "v_weapon.Bip01_L_Finger2_29",
      "rotation": [
        -0.0157342366874218,
        -0.00819226261228323,
        0.13771727681159973,
        0.9903128147125244
      ],
      "scale": [
        1.0,
        0.9999999403953552,
        0.9999998807907104
      ],
      "translation": [
        3.799513816833496,
        0.014938943088054657,
        -0.039961859583854675
      ]
    },
    {
      "children": [
        39
      ],
      "name": "v_weapon.Bip01_L_Finger21_28",
      "rotation": [
        -0.012005064636468887,
        0.001812379457987845,
        0.22557604312896729,
        0.9741499423980713
      ],
      "scale": [
        0.9999999403953552,
        0.9999999403953552,
        1.0
      ],
      "translation": [
        1.7748808860778809,
        5.185604095458984e-06,
        -3.6954879760742188e-06
      ]
    },
    {
      "name": "v_weapon.Bip01_L_Finger22_27",
      "rotation": [
        -0.01200606394559145,
        0.0018176572630181909,
        0.22558321058750153,
        0.9741482734680176
      ],
      "scale": [
        1.0,
        0.9999999403953552,
        0.9999998807907104
      ],
      "translation": [
        1.0088452100753784,
        9.447336196899414e-06,
        -9.59634780883789e-06
      ]
    },
    {
      "children": [
        41
      ],
      "name": "v_weapon.Bip01_L_Finger3_32",
      "rotation": [
        -0.11500284075737,
        -0.12125920504331589,
        0.21185432374477386,
        0.9629061818122864
      ],
      "scale": [
        0.9999999403953552,
        1.0,
        0.9999998807907104
      ],
      "translation": [
        3.632765769958496,
        0.05904221534729004,
        0.7574912309646606
      ]
    },
    {
      "children": [
        42
      ],
      "name": "v_weapon.Bip01_L_Finger31_31",
      "rotation": [
        -0.00907097663730383,
        0.0014158196281641722,
        0.21111159026622772,
        0.9774188995361328
      ],
      "scale": [
        1.0,
        1.0,
        0.9999998807907104
      ],
      "translation": [
        1.5001338720321655,
        5.543231964111328e-06,
        -7.12275505065918e-06
      ]
    },
    {
      "name": "v_weapon.Bip01_L_Finger32_30",
      "rotation": [
        -0.009068798273801804,
        0.0014118634862825274,
        0.2111080288887024,
        0.9774196743965149
      ],
      "scale": [
        0.9999999403953552,
        0.9999999403953552,
        1.0
      ],
      "translation": [
        0.9056640267372131,
        1.6689300537109375e-06,
        -1.5497207641601563e-06
      ]
    },
    {
      "children": [
        44
      ],
      "name": "v_weapon.Bip01_L_Finger4_35",
      "rotation": [
        -0.11721331626176834,
        -0.26699525117874146,
        0.2502179741859436,
        0.9232365489006042
      ],
      "scale": [
        1.0,
        0.9999999403953552,
        1.0
      ],
      "translation": [
        3.3233304023742676,
        0.23372870683670044,
        1.479073166847229
      ]
    },
    {
      "children": [
        45
      ],
      "name": "v_weapon.Bip01_L_Finger41_34",
      "rotation": [
        -0.009916123934090137,
        0.0019530304707586765,
        0.2713097333908081,
        0.9624390602111816
      ],
      "scale": [
        1.0000001192092896,
        1.0,
        1.0
      ],
      "translation": [
        0.963098406791687,
        9.059906005859375e-06,
        -3.4570693969726563e-06
      ]
    },
    {
      "name": "v_weapon.Bip01_L_Finger42_33",
      "rotation": [
        -0.00991943757981062,
        0.0019531790167093277,
        0.27131253480911255,
        0.9624382257461548
      ],
      "scale": [
        0.9999999403953552,
        1.0,
        1.0
      ],
      "translation": [
        0.682896614074707,
        9.5367431640625e-07,
        -1.0132789611816406e-06
      ]
    },
    {
      "name": "v_weapon.Bip01_L_ForeTwist_38",
      "rotation": [
        0.28022003173828125,
        -0.6646777987480164,
        -0.692072331905365,
        0.026760587468743324
      ],
      "scale": [
        1.0000015497207642,
        1.0000001192092896,
        1.0000001192092896
      ],
      "translation": [
        10.386484146118164,
        -11.452825546264648,
        9.22238826751709
      ]
    },
    {
      "name": "v_weapon.Bip01_R_ForeTwist_39",
      "rotation": [
        0.4581049978733063,
        -0.1793639361858368,
        0.12772777676582336,
        0.8611933588981628
      ],
      "scale": [
        0.9999999403953552,
        0.9999999403953552,
        0.9999998807907104
      ],
      "translation": [
        -4.697147846221924,
        -11.1909818649292,
        3.206418037414551
      ]
    }
  ],
  "samplers": [
    {
      "magFilter": 9729,
      "minFilter": 9987,
      "wrapS": 10497,
      "wrapT": 10497
    }
  ],
  "scene": 0,
  "scenes": [
    {
      "name": "Sketchfab_Scene",
      "nodes": [
        0
      ]
    }
  ],
  "skins": [
    {
      "inverseBindMatrices": 4,
      "joints": [
        5,
        8,
        9,
        10,
        11,
        12,
        13,
        14,
        15,
        16,
        17,
        18,
        19,
        20,
        21,
        22,
        23,
        24,
        25,
        26,
        27,
        28,
        29,
        30,
        31,
        32,
        33,
        34,
        35,
        36,
        37,
        38,
        39,
        40,
        41,
        42,
        43,
        44,
        45,
        46,
        47
      ],
      "skeleton": 5
    }
  ],
  "textures": [
    {
      "sampler": 0,
      "source": 0
    }
  ]
}
